<mxfile host="app.diagrams.net" modified="2020-08-10T18:25:12.978Z" agent="5.0 (Macintosh; Intel Mac OS X 10_15_5) AppleWebKit/537.36 (KHTML, like Gecko) Chrome/84.0.4147.105 Safari/537.36" etag="zHXHz1JO5r6wphiwEUCu" version="13.5.8" type="github">
  <diagram id="paf2wcuUh3HJrHaCosqS" name="Page-1">
    <mxGraphModel dx="2066" dy="1105" grid="1" gridSize="10" guides="1" tooltips="1" connect="1" arrows="1" fold="1" page="1" pageScale="1" pageWidth="827" pageHeight="1169" math="0" shadow="0">
      <root>
        <mxCell id="0" />
        <mxCell id="1" parent="0" />
        <mxCell id="MLRZFAuijJ8m53aFeXaq-1" value="&lt;h1&gt;Program 1&lt;/h1&gt;&lt;p&gt;while(1){&lt;/p&gt;&lt;p&gt;&lt;span&gt;	&lt;/span&gt;p1_wants_to_enter = true;&lt;/p&gt;&lt;p&gt;&amp;nbsp; &amp;nbsp; while(p2_wants_to_enter == true);&lt;/p&gt;&lt;p&gt;&amp;nbsp; &amp;nbsp; // critical section&lt;/p&gt;&lt;p&gt;&amp;nbsp; &amp;nbsp; p1_wants_to_enter = false;&lt;/p&gt;&lt;p&gt;}&lt;/p&gt;" style="text;html=1;fillColor=none;spacing=5;spacingTop=-20;whiteSpace=wrap;overflow=hidden;rounded=0;strokeColor=#00FF00;strokeWidth=2;" vertex="1" parent="1">
          <mxGeometry x="150" y="240" width="190" height="230" as="geometry" />
        </mxCell>
        <mxCell id="MLRZFAuijJ8m53aFeXaq-2" value="&lt;h1&gt;Program 2&lt;/h1&gt;&lt;p&gt;while(1){&lt;/p&gt;&lt;p&gt;&lt;span&gt;	&lt;/span&gt;p2_wants_to_enter = true;&lt;/p&gt;&lt;p&gt;&amp;nbsp; &amp;nbsp; while(p1_wants_to_enter == true);&lt;/p&gt;&lt;p&gt;&amp;nbsp; &amp;nbsp; // critical section&lt;/p&gt;&lt;p&gt;&amp;nbsp; &amp;nbsp; p2_wants_to_enter = false;&lt;/p&gt;&lt;p&gt;}&lt;/p&gt;" style="text;html=1;fillColor=none;spacing=5;spacingTop=-20;whiteSpace=wrap;overflow=hidden;rounded=0;strokeWidth=2;strokeColor=#FF0080;" vertex="1" parent="1">
          <mxGeometry x="530" y="240" width="190" height="230" as="geometry" />
        </mxCell>
        <mxCell id="MLRZFAuijJ8m53aFeXaq-3" value="p1_wants_to_enter,p2_wants_to_enter" style="text;html=1;fillColor=none;align=center;verticalAlign=middle;whiteSpace=wrap;rounded=0;strokeColor=#000000;" vertex="1" parent="1">
          <mxGeometry x="334" y="170" width="226" height="40" as="geometry" />
        </mxCell>
        <mxCell id="MLRZFAuijJ8m53aFeXaq-4" value="&lt;font style=&quot;font-size: 20px&quot;&gt;globally defined&lt;/font&gt;" style="text;html=1;align=center;verticalAlign=middle;resizable=0;points=[];autosize=1;" vertex="1" parent="1">
          <mxGeometry x="357" y="130" width="150" height="20" as="geometry" />
        </mxCell>
        <mxCell id="MLRZFAuijJ8m53aFeXaq-5" value="" style="shape=table;html=1;whiteSpace=wrap;startSize=0;container=1;collapsible=0;childLayout=tableLayout;" vertex="1" parent="1">
          <mxGeometry x="155" y="540" width="565" height="160" as="geometry" />
        </mxCell>
        <mxCell id="MLRZFAuijJ8m53aFeXaq-6" style="shape=partialRectangle;html=1;whiteSpace=wrap;collapsible=0;dropTarget=0;pointerEvents=0;fillColor=none;top=0;left=0;bottom=0;right=0;points=[[0,0.5],[1,0.5]];portConstraint=eastwest;" vertex="1" parent="MLRZFAuijJ8m53aFeXaq-5">
          <mxGeometry width="565" height="40" as="geometry" />
        </mxCell>
        <mxCell id="MLRZFAuijJ8m53aFeXaq-7" value="CPU" style="shape=partialRectangle;html=1;whiteSpace=wrap;connectable=0;overflow=hidden;fillColor=none;top=0;left=0;bottom=0;right=0;" vertex="1" parent="MLRZFAuijJ8m53aFeXaq-6">
          <mxGeometry width="295" height="40" as="geometry" />
        </mxCell>
        <mxCell id="MLRZFAuijJ8m53aFeXaq-8" value="p1_wants_to_enter" style="shape=partialRectangle;html=1;whiteSpace=wrap;connectable=0;overflow=hidden;fillColor=none;top=0;left=0;bottom=0;right=0;" vertex="1" parent="MLRZFAuijJ8m53aFeXaq-6">
          <mxGeometry x="295" width="140" height="40" as="geometry" />
        </mxCell>
        <mxCell id="MLRZFAuijJ8m53aFeXaq-9" value="&lt;meta charset=&quot;utf-8&quot;&gt;&lt;span style=&quot;color: rgb(0, 0, 0); font-family: helvetica; font-size: 12px; font-style: normal; font-weight: 400; letter-spacing: normal; text-align: center; text-indent: 0px; text-transform: none; word-spacing: 0px; background-color: rgb(248, 249, 250); display: inline; float: none;&quot;&gt;p2_wants_to_enter&lt;/span&gt;" style="shape=partialRectangle;html=1;whiteSpace=wrap;connectable=0;overflow=hidden;fillColor=none;top=0;left=0;bottom=0;right=0;" vertex="1" parent="MLRZFAuijJ8m53aFeXaq-6">
          <mxGeometry x="435" width="130" height="40" as="geometry" />
        </mxCell>
        <mxCell id="MLRZFAuijJ8m53aFeXaq-10" value="" style="shape=partialRectangle;html=1;whiteSpace=wrap;collapsible=0;dropTarget=0;pointerEvents=0;fillColor=none;top=0;left=0;bottom=0;right=0;points=[[0,0.5],[1,0.5]];portConstraint=eastwest;" vertex="1" parent="MLRZFAuijJ8m53aFeXaq-5">
          <mxGeometry y="40" width="565" height="40" as="geometry" />
        </mxCell>
        <mxCell id="MLRZFAuijJ8m53aFeXaq-11" value="&lt;span style=&quot;color: rgb(0 , 0 , 0) ; font-family: &amp;#34;helvetica&amp;#34; ; font-size: 12px ; font-style: normal ; font-weight: 400 ; letter-spacing: normal ; text-align: center ; text-indent: 0px ; text-transform: none ; word-spacing: 0px ; background-color: rgb(248 , 249 , 250) ; display: inline ; float: none&quot;&gt;p2_wants_to_enter = true&lt;/span&gt;" style="shape=partialRectangle;html=1;whiteSpace=wrap;connectable=0;overflow=hidden;fillColor=none;top=0;left=0;bottom=0;right=0;" vertex="1" parent="MLRZFAuijJ8m53aFeXaq-10">
          <mxGeometry width="295" height="40" as="geometry" />
        </mxCell>
        <mxCell id="MLRZFAuijJ8m53aFeXaq-12" value="false" style="shape=partialRectangle;html=1;whiteSpace=wrap;connectable=0;overflow=hidden;fillColor=none;top=0;left=0;bottom=0;right=0;" vertex="1" parent="MLRZFAuijJ8m53aFeXaq-10">
          <mxGeometry x="295" width="140" height="40" as="geometry" />
        </mxCell>
        <mxCell id="MLRZFAuijJ8m53aFeXaq-13" value="false" style="shape=partialRectangle;html=1;whiteSpace=wrap;connectable=0;overflow=hidden;fillColor=none;top=0;left=0;bottom=0;right=0;" vertex="1" parent="MLRZFAuijJ8m53aFeXaq-10">
          <mxGeometry x="435" width="130" height="40" as="geometry" />
        </mxCell>
        <mxCell id="MLRZFAuijJ8m53aFeXaq-14" value="" style="shape=partialRectangle;html=1;whiteSpace=wrap;collapsible=0;dropTarget=0;pointerEvents=0;fillColor=none;top=0;left=0;bottom=0;right=0;points=[[0,0.5],[1,0.5]];portConstraint=eastwest;" vertex="1" parent="MLRZFAuijJ8m53aFeXaq-5">
          <mxGeometry y="80" width="565" height="40" as="geometry" />
        </mxCell>
        <mxCell id="MLRZFAuijJ8m53aFeXaq-15" value="" style="group;fillColor=#dae8fc;strokeColor=#6c8ebf;" vertex="1" connectable="0" parent="MLRZFAuijJ8m53aFeXaq-14">
          <mxGeometry width="565" height="40" as="geometry" />
        </mxCell>
        <mxCell id="MLRZFAuijJ8m53aFeXaq-16" value="context switch" style="shape=partialRectangle;html=1;whiteSpace=wrap;connectable=0;overflow=hidden;fillColor=none;top=0;left=0;bottom=0;right=0;" vertex="1" parent="MLRZFAuijJ8m53aFeXaq-15">
          <mxGeometry width="295" height="40" as="geometry" />
        </mxCell>
        <mxCell id="MLRZFAuijJ8m53aFeXaq-17" value="" style="shape=partialRectangle;html=1;whiteSpace=wrap;connectable=0;overflow=hidden;fillColor=none;top=0;left=0;bottom=0;right=0;" vertex="1" parent="MLRZFAuijJ8m53aFeXaq-15">
          <mxGeometry x="435" width="130" height="40" as="geometry" />
        </mxCell>
        <mxCell id="MLRZFAuijJ8m53aFeXaq-18" value="" style="shape=partialRectangle;html=1;whiteSpace=wrap;collapsible=0;dropTarget=0;pointerEvents=0;fillColor=none;top=0;left=0;bottom=0;right=0;points=[[0,0.5],[1,0.5]];portConstraint=eastwest;" vertex="1" parent="MLRZFAuijJ8m53aFeXaq-5">
          <mxGeometry y="120" width="565" height="40" as="geometry" />
        </mxCell>
        <mxCell id="MLRZFAuijJ8m53aFeXaq-19" value="p1_wants_to_enter = true" style="shape=partialRectangle;html=1;whiteSpace=wrap;connectable=0;overflow=hidden;fillColor=none;top=0;left=0;bottom=0;right=0;" vertex="1" parent="MLRZFAuijJ8m53aFeXaq-18">
          <mxGeometry width="295" height="40" as="geometry" />
        </mxCell>
        <mxCell id="MLRZFAuijJ8m53aFeXaq-20" value="false" style="shape=partialRectangle;html=1;whiteSpace=wrap;connectable=0;overflow=hidden;fillColor=none;top=0;left=0;bottom=0;right=0;" vertex="1" parent="MLRZFAuijJ8m53aFeXaq-18">
          <mxGeometry x="295" width="140" height="40" as="geometry" />
        </mxCell>
        <mxCell id="MLRZFAuijJ8m53aFeXaq-21" value="false" style="shape=partialRectangle;html=1;whiteSpace=wrap;connectable=0;overflow=hidden;fillColor=none;top=0;left=0;bottom=0;right=0;" vertex="1" parent="MLRZFAuijJ8m53aFeXaq-18">
          <mxGeometry x="435" width="130" height="40" as="geometry" />
        </mxCell>
      </root>
    </mxGraphModel>
  </diagram>
</mxfile>
